<?xml version="1.0" encoding="utf-8"?>
<!-- Generator: Adobe Illustrator 16.0.4, SVG Export Plug-In . SVG Version: 6.00 Build 0)  -->
<!DOCTYPE svg PUBLIC "-//W3C//DTD SVG 1.1//EN" "http://www.w3.org/Graphics/SVG/1.1/DTD/svg11.dtd">
<svg version="1.1" id="Layer_1" xmlns="http://www.w3.org/2000/svg" xmlns:xlink="http://www.w3.org/1999/xlink" x="0px" y="0px"
	 width="531.973px" height="67.018px" viewBox="1.283 58.973 531.973 67.018" enable-background="new 1.283 58.973 531.973 67.018"
	 xml:space="preserve">
<path fill="#FFFFFF" d="M41.88,84.75l25.09,26.784L54.889,84.75H41.88z M74.583,115.84L88.64,84.75H60.527L74.583,115.84z
	 M55.009,79.594l8.217-15.466H52.673l-11.6,15.466H55.009z M82.196,111.534l25.091-26.784h-13.01L82.196,111.534z M60.849,79.594
	h27.469l-8.217-15.466H69.065L60.849,79.594z M94.158,79.594h13.936l-11.6-15.466H85.942L94.158,79.594z M99.835,60.02
	l15.467,20.621c0.375,0.483,0.55,1.04,0.523,1.671c-0.027,0.632-0.258,1.174-0.687,1.632l-38.664,41.243
	c-0.483,0.536-1.113,0.804-1.893,0.804c-0.778,0-1.408-0.268-1.892-0.804L34.026,83.944c-0.429-0.457-0.658-1-0.685-1.632
	c-0.027-0.631,0.147-1.188,0.523-1.671L49.331,60.02c0.484-0.699,1.168-1.047,2.054-1.047h46.398
	C98.667,58.973,99.353,59.322,99.835,60.02z"/>
<g>
	<path d="M21.123,66.146l3.771,1.913L5,110.909l-3.717-1.859L21.123,66.146z"/>
	<path d="M52.79,66.146l3.771,1.913l-19.895,42.85l-3.717-1.859L52.79,66.146z"/>
	<path d="M108.303,78.659c4.491,0,8.162,1.643,10.062,4.807c1.336,2.226,1.421,4.465,1.421,6.837v17.926h-4.318v-3.17
		c-3.157,2.588-6.835,3.881-10.39,3.881c-6.045,0-9.732-3.943-9.732-8.189c0-3.207,2.069-6.588,6.634-8.266
		c3.681-1.352,8.243-1.308,12.504-1.308h0.93v-1.038c0-1.533,0.022-3.395-0.942-4.978c-0.816-1.341-2.515-2.785-5.951-2.785
		c-2.673,0-5.931,0.746-8.301,3.227l-2.24-2.896C100.68,79.914,104.4,78.659,108.303,78.659z M114.539,94.676
		c-3.007,0-6.881-0.191-9.508,0.436c-3.629,0.867-5.103,3.23-5.103,5.332c0,2.586,2.241,5.01,6.076,5.01
		c3.79,0,6.558-2.299,7.607-3.416c1.952-2.074,1.965-3.949,1.965-5.449v-1.912H114.539z"/>
	<path d="M140.794,70.737c0.222,0.642-0.232,1.033-0.358,1.71c-0.299,1.604-0.735,6.815-0.735,6.815h9.456v3.771h-9.511
		c-0.365,3.762-0.548,7.539-0.548,11.32c0,4.193,0.15,5.307,0.186,5.562c0.463,3.473,2.708,4.67,4.867,4.67
		c1.781,0,4.026-0.816,6.481-2.643l1.421,3.607c-2.447,1.791-5.804,3.232-9.248,3.232c-2.956,0-5.216-1.148-6.589-3.082
		c-1.685-2.373-1.707-5.281-1.707-7.877c0-4.912,0.197-9.837,0.601-14.791h-6.776l0.053-3.716h6.888l0.546-7.761L140.794,70.737z"/>
	<path d="M171.637,78.659c4.49,0,8.161,1.643,10.061,4.807c1.336,2.226,1.421,4.465,1.421,6.837v17.926h-4.317v-3.17
		c-3.156,2.588-6.836,3.881-10.389,3.881c-6.045,0-9.735-3.943-9.735-8.189c0-3.207,2.072-6.588,6.635-8.266
		c3.682-1.352,8.243-1.308,12.506-1.308h0.928v-1.038c0-1.533,0.022-3.395-0.94-4.978c-0.817-1.341-2.517-2.785-5.953-2.785
		c-2.673,0-5.93,0.746-8.3,3.227l-2.241-2.896C164.015,79.914,167.734,78.659,171.637,78.659z M177.872,94.676
		c-3.006,0-6.88-0.191-9.509,0.436c-3.626,0.867-5.103,3.23-5.103,5.332c0,2.586,2.242,5.01,6.078,5.01
		c3.789,0,6.556-2.299,7.607-3.416c1.952-2.074,1.965-3.949,1.965-5.449v-1.912H177.872z"/>
	<path d="M191.556,79.317h4.647V84.4c2.123-3.225,5.69-5.794,9.615-5.794c3.298,0,6.263,1.852,7.704,5.107
		c1.029,2.326,1.043,4.713,1.043,6.973v17.543h-4.481V90.795c0-2.044-0.013-4.527-1.578-6.398c-1.04-1.242-2.471-1.832-3.923-1.832
		c-3.059,0-5.84,2.557-6.943,4.027c-1.204,1.604-1.437,3.02-1.437,4.967v16.67h-4.647V79.317z"/>
	<path d="M234.97,78.659c4.491,0,8.162,1.643,10.061,4.807c1.336,2.226,1.421,4.465,1.421,6.837v17.926h-4.317v-3.17
		c-3.157,2.588-6.835,3.881-10.389,3.881c-6.045,0-9.734-3.943-9.734-8.189c0-3.207,2.071-6.588,6.635-8.266
		c3.682-1.352,8.242-1.308,12.504-1.308h0.93v-1.038c0-1.533,0.021-3.395-0.941-4.978c-0.816-1.341-2.516-2.785-5.952-2.785
		c-2.673,0-5.931,0.746-8.3,3.227l-2.241-2.896C227.347,79.914,231.068,78.659,234.97,78.659z M241.205,94.676
		c-3.006,0-6.879-0.191-9.507,0.436c-3.628,0.867-5.104,3.23-5.104,5.332c0,2.586,2.241,5.01,6.077,5.01
		c3.789,0,6.557-2.299,7.607-3.416c1.953-2.074,1.965-3.949,1.965-5.449v-1.912H241.205z"/>
	<path d="M275.277,87.133c-0.111-0.027-0.332-0.131-0.33-0.51c0.002-0.223,0.043-0.375-0.135-0.604
		c-1.102-1.421-3.907-3.973-8.031-3.973c-3.272,0-6.097,1.623-6.097,3.951c0,0.972,0.503,2.375,2.866,3.517
		c2.704,1.307,7.363,1.961,10.634,3.797c3.423,1.922,4.247,4.539,4.247,6.541c0,4.367-4.131,9.035-12.038,9.035
		c-4.395,0-8.817-1.436-12.214-4.592l2.624-4.537c0.312,0.145,0.284,0.508,0.28,0.596c-0.012,0.252-0.039,0.432,0.176,0.676
		c0.916,1.041,4.093,4.029,9.052,4.029c4.134,0,7.438-1.867,7.438-4.576c0-1.047-0.5-2.57-2.886-3.688
		c-2.135-0.998-5.329-1.768-7.776-2.652c-1.57-0.568-7.049-2.408-7.049-7.46c0-4.321,4.402-8.077,11.122-8.077
		c4.279,0,8.121,1.591,10.794,4.537L275.277,87.133z"/>
	<path d="M298.361,108.995c-7.292,0-13.56-6.205-13.56-15.006c0-8.94,6.321-15.328,13.694-15.328
		c6.576,0,12.881,5.243,12.881,15.234C311.376,103.485,305.212,108.995,298.361,108.995z M289.617,93.592
		c0,7.139,4.169,11.467,8.78,11.467c4.223,0,8.392-3.693,8.392-10.977c0-7.944-4.43-11.546-8.604-11.546
		C293.76,82.537,289.617,86.5,289.617,93.592z"/>
	<path d="M344.513,69.698l-2.077,4.208c-0.194,0.021-0.479-0.094-0.515-0.527c-0.021-0.271,0.029-0.444-0.174-0.751
		c-1.217-1.841-3.534-3.311-6.32-3.311c-2.393,0-4.627,1.066-5.82,3.204c-1.08,1.937-1.053,4.155-1.053,6.25v2.24h9.455v3.607
		h-9.455v23.61h-4.373v-23.61h-6.285v-3.607h6.285v-2.842c0-2.568,0.105-4.979,1.589-7.391c2.021-3.288,5.825-5.041,9.89-5.041
		C339.299,65.738,342.443,67.207,344.513,69.698z"/>
	<path d="M376.18,69.698l-2.077,4.208c-0.195,0.021-0.479-0.094-0.515-0.527c-0.021-0.271,0.029-0.444-0.174-0.751
		c-1.218-1.841-3.534-3.311-6.321-3.311c-2.393,0-4.626,1.066-5.82,3.204c-1.08,1.937-1.052,4.155-1.052,6.25v2.24h9.454v3.607
		h-9.454v23.61h-4.373v-23.61h-6.286v-3.607h6.286v-2.842c0-2.568,0.105-4.979,1.589-7.391c2.021-3.288,5.825-5.041,9.89-5.041
		C370.966,65.738,374.109,67.207,376.18,69.698z"/>
	<path d="M386.367,66.091c0.108,0.381-0.238,0.625-0.344,0.71c-0.297,0.236-0.366,0.375-0.366,0.71v16.233
		c1.835-3.18,5.231-5.142,8.915-5.142c5.687,0,11.635,4.697,11.635,14.804c0,10.496-6.162,15.537-12.096,15.537
		c-3.472,0-6.664-1.717-8.563-4.539l-1.585,3.824h-2.952V66.091H386.367z M386.414,86.751c-0.658,1.592-0.758,3.454-0.758,6.071
		c0,2.504-0.021,4.209,0.177,5.713c0.729,5.516,5.101,6.307,7.079,6.307c2.83,0,8.554-1.617,8.554-10.477
		c0-10.216-5.763-11.843-8.48-11.843C390.12,82.522,387.492,84.143,386.414,86.751z"/>
	<path d="M436.744,88.876c0.285,1.679,0.377,3.538,0.201,5.526h-20.534c0.345,8.664,5.948,10.797,9.819,10.797
		c2.877,0,5.604-1.145,7.489-3.256l2.515,2.461c-2.478,2.979-6.229,4.488-10.357,4.488c-7.858,0-13.893-5.156-13.893-14.797
		c0-10.562,6.392-15.504,13.303-15.504C430.031,78.592,435.429,81.109,436.744,88.876z M432.462,90.905
		c0.544-4.692-2.805-8.81-7.494-8.81c-3.104,0-7.509,1.985-8.41,8.81H432.462z"/>
	<path d="M451.614,79.317l-0.164,5.575c1.895-4.136,6.185-6.274,10.412-6.274c3.249,0,5.913,1.295,7.733,3.159l-2.132,4.372
		c-0.485-0.465-0.694-0.965-1.074-1.451c-0.812-1.038-2.342-2.167-4.776-2.167c-2.047,0-5.5,0.72-8.129,4.876
		c-1.967,3.109-2.034,5.031-2.034,6.775v14.102h-4.591V79.317H451.614z"/>
	<path d="M483.281,79.317l-0.164,5.575c1.895-4.136,6.185-6.274,10.412-6.274c3.249,0,5.912,1.295,7.732,3.159l-2.131,4.372
		c-0.486-0.465-0.694-0.965-1.074-1.451c-0.812-1.038-2.342-2.167-4.777-2.167c-2.046,0-5.499,0.72-8.128,4.876
		c-1.967,3.109-2.034,5.031-2.034,6.775v14.102h-4.592V79.317H483.281z"/>
	<path d="M512.488,79.317c0.035,0.569-0.283,0.888-0.283,1.354c0,0.185,0.048,0.325,0.119,0.504l8.471,21.315l5.521-15.521
		c0.887-2.491,1.709-5.058,2.187-7.707h4.755c-0.851,2.829-1.856,5.607-2.896,8.363l-9.018,23.883
		c-0.618,1.639-1.229,3.164-2.493,4.586c-1.928,2.17-4.639,3.131-7.252,3.131c-2.379,0-4.6-0.816-6.269-2.414l2.349-4.1
		c0.375,0.291,0.343,0.715,0.506,1.027c0.161,0.311,1.255,1.746,3.4,1.746c1.354,0,2.841-0.59,4.046-1.873
		c0.917-0.975,1.495-2.209,1.995-3.361l0.931-2.131l-11.752-28.802H512.488z"/>
</g>
</svg>
